<svg width="800" height="800" viewBox="0 0 24 24" fill="none" xmlns="http://www.w3.org/2000/svg"><rect x="1.5" y="1.5" width="21" height="21" rx="5" fill="#fff"/><g stroke="#f51e31" stroke-width="2.6"><path d="M5 11.56c0-1.358 0-2.037.274-2.634.275-.597.79-1.038 1.821-1.922l1-.857C9.96 4.55 10.89 3.75 12 3.75s2.041.799 3.905 2.396l1 .857c1.03.884 1.546 1.325 1.82 1.922.275.597.275 1.276.275 2.634V15.8c0 1.886 0 2.828-.586 3.414S16.886 19.8 15 19.8H9c-1.886 0-2.828 0-3.414-.586S5 17.686 5 15.8z"/><path d="M14.5 19.8v-5a1 1 0 0 0-1-1h-3a1 1 0 0 0-1 1v5" stroke-linecap="round" stroke-linejoin="round"/></g></svg>
